<svg width="40" height="46" viewBox="0 0 40 46" fill="none" xmlns="http://www.w3.org/2000/svg">
<path d="M39.1591 31.7595C38.9863 31.5542 38.8167 31.3488 38.6502 31.1506C36.3604 28.4184 34.9751 26.7693 34.9751 19.0346C34.9751 15.0301 34.0041 11.7444 32.0901 9.28009C30.6788 7.4596 28.771 6.07857 26.2564 5.05795C26.2241 5.04019 26.1952 5.01689 26.1711 4.98915C25.2667 2.0012 22.7917 0 20.0003 0C17.2089 0 14.7349 2.0012 13.8305 4.98607C13.8064 5.01284 13.7779 5.0354 13.7462 5.05281C7.87819 7.43598 5.02643 12.0083 5.02643 19.0315C5.02643 26.7693 3.64322 28.4184 1.35141 31.1475C1.18488 31.3457 1.01523 31.547 0.84246 31.7564C0.39617 32.2874 0.113409 32.9334 0.0276403 33.618C-0.0581286 34.3025 0.0566847 34.997 0.358493 35.6192C1.00066 36.954 2.3693 37.7826 3.93152 37.7826H36.0804C37.6354 37.7826 38.9947 36.955 39.6389 35.6264C39.942 35.004 40.0579 34.309 39.9729 33.6236C39.8878 32.9383 39.6054 32.2914 39.1591 31.7595ZM20.0003 46C21.5042 45.9988 22.9798 45.596 24.2706 44.8344C25.5613 44.0728 26.619 42.9808 27.3316 41.6742C27.3651 41.6115 27.3817 41.5414 27.3797 41.4706C27.3777 41.3998 27.3571 41.3307 27.3201 41.27C27.283 41.2094 27.2306 41.1592 27.1681 41.1244C27.1055 41.0896 27.0349 41.0714 26.9631 41.0714H13.0395C12.9676 41.0712 12.8968 41.0893 12.8342 41.124C12.7715 41.1588 12.719 41.2089 12.6818 41.2696C12.6446 41.3303 12.6239 41.3995 12.6219 41.4703C12.6198 41.5412 12.6364 41.6115 12.67 41.6742C13.3824 42.9807 14.44 44.0726 15.7305 44.8342C17.0211 45.5958 18.4965 45.9986 20.0003 46Z" fill="#FD6E2B"/>
</svg>
