<svg width="40" height="45" viewBox="0 0 40 45" fill="none" xmlns="http://www.w3.org/2000/svg">
<g clip-path="url(#clip0_357_56)">
<path d="M39.939 4.00524C39.939 1.79321 38.117 0 35.8695 0C33.622 0 31.8 1.79321 31.8 4.00524V41.2714C31.8 43.4835 33.622 45.2767 35.8695 45.2767C38.117 45.2767 39.939 43.4835 39.939 41.2714V4.00524Z" fill="#473366"/>
<path d="M8.14456 4.00524C8.14456 1.79321 6.32258 0 4.07506 0C1.82753 0 0.0055542 1.79321 0.0055542 4.00524V41.2714C0.0055542 43.4835 1.82753 45.2767 4.07506 45.2767C6.32258 45.2767 8.14456 43.4835 8.14456 41.2714V4.00524Z" fill="#FD6E2B"/>
<path d="M39.1782 6.28241C41.0672 3.64044 39.1473 0 35.8648 0C34.5463 0 33.3102 0.631481 32.5515 1.69276L11.3596 31.332C9.47057 33.974 11.3906 37.6145 14.6729 37.6145C15.9915 37.6145 17.2275 36.983 17.9864 35.9218L39.1782 6.28241Z" fill="#FD6E2B"/>
<path d="M0.745242 6.28241C-1.14375 3.64044 0.776244 0 4.05863 0C5.37715 0 6.61321 0.631481 7.37201 1.69276L28.3478 31.0298C30.3277 33.7989 28.3154 37.6145 24.8751 37.6145H23.1475H15.3623L16.6491 36.5429C18.5457 34.9633 18.9603 32.2457 17.6188 30.1877L15.3623 26.726L0.745242 6.28241Z" fill="#473366"/>
</g>
<defs>
<clipPath id="clip0_357_56">
<rect width="40" height="45" fill="white"/>
</clipPath>
</defs>
</svg>
